<?xml version="1.0" encoding="UTF-8"?>
<svg version="1.1" xmlns="http://www.w3.org/2000/svg" width="986" height="980">
<path d="M0 0 C3.55889654 0.02278866 7.11659524 0.00918251 10.67545128 -0.01375961 C36.9402935 -0.15690378 62.93929298 2.18310421 88.64550781 7.77148438 C89.334552 7.91766205 90.02359619 8.06383972 90.73352051 8.21444702 C110.63340511 12.44493368 129.85574747 18.63658157 149.10595703 25.16516113 C158.17835656 28.2409173 167.29104125 31.02063646 176.52050781 33.58398438 C199.87965102 40.12317262 222.15329459 48.57544061 244.27050781 58.52148438 C245.22828125 58.95074219 246.18605469 59.38 247.17285156 59.82226562 C274.67591742 72.25191519 300.96428896 87.90573238 325.15039062 105.94384766 C327.23068582 107.49185175 329.32312652 109.02193122 331.41894531 110.54882812 C340.78900256 117.41802845 349.60392676 124.78886961 358.27050781 132.52148438 C359.13933594 133.28976563 360.00816406 134.05804688 360.90332031 134.84960938 C363.37737821 137.05421542 365.82652673 139.28357862 368.27050781 141.52148438 C368.81642578 142.01696777 369.36234375 142.51245117 369.92480469 143.02294922 C378.97874637 151.25358187 387.53113716 159.8075683 395.76025391 168.86279297 C397.08365796 170.31626972 398.420176 171.75778376 399.75878906 173.19726562 C405.46715377 179.39231152 410.65578081 185.93906312 415.79052734 192.60888672 C417.28025991 194.53408713 418.78750261 196.44446158 420.29785156 198.35351562 C468.06974816 259.17988115 499.14248116 332.84686449 511.08300781 409.14648438 C511.37522217 411.00950195 511.37522217 411.00950195 511.67333984 412.91015625 C512.14955056 416.10055824 512.59604398 419.29229803 513.00805664 422.49160767 C513.18343026 423.84800027 513.36477639 425.20363365 513.55200195 426.55844116 C515.76124522 442.87622052 515.6454019 459.29069322 515.64111328 475.72387695 C515.64095215 478.9373256 515.65464134 482.15019548 515.68212891 485.36352539 C515.92841135 514.65886139 513.90442274 543.4739013 507.89550781 572.20898438 C507.59163776 573.71173477 507.28826511 575.21458581 506.98535156 576.7175293 C504.46648873 589.08283328 501.6409639 601.35862894 498.27050781 613.52148438 C498.02397461 614.41915527 497.77744141 615.31682617 497.5234375 616.24169922 C479.67117 680.28298488 447.10384012 740.71108339 404.70166016 791.78613281 C403.43412619 793.32308802 402.18851574 794.87806603 400.94628906 796.43554688 C395.55535183 803.19165675 389.74267075 809.48327031 383.80957031 815.75976562 C381.58950957 818.1087602 379.39418724 820.47509616 377.23144531 822.87695312 C370.21035316 830.66207761 362.76773351 837.8604802 355.02197266 844.92285156 C353.42742666 846.3782582 351.84149823 847.84229532 350.25878906 849.31054688 C344.12088984 854.96687055 337.77775147 860.29700024 331.27050781 865.52148438 C330.12673843 866.45702222 328.98353638 867.39325399 327.84082031 868.33007812 C318.62173545 875.84925127 309.08580286 882.80299365 299.27050781 889.52148438 C298.54992187 890.01648438 297.82933594 890.51148438 297.08691406 891.02148438 C225.03265527 940.34204655 142.91670413 970.07606652 56.27050781 979.52148438 C55.51316849 979.60843063 54.75582916 979.69537689 53.97554016 979.78495789 C45.53069447 980.66724039 37.09860267 980.72230605 28.61816406 980.75976562 C27.82367796 980.76384115 27.02919186 980.76791668 26.21063042 980.77211571 C21.98051097 980.79289145 17.75042285 980.80721271 13.52026367 980.81665039 C10.10666336 980.82538185 6.69348737 980.84595577 3.2800293 980.87817383 C-73.98948266 981.59084595 -148.68802225 963.13794409 -217.72949219 928.52148438 C-218.99647949 927.88992432 -218.99647949 927.88992432 -220.2890625 927.24560547 C-264.2492152 905.19448241 -303.7297311 874.78292059 -338.35864258 840.02270508 C-340.05468945 838.3212466 -341.75609039 836.62527175 -343.45800781 834.9296875 C-349.094043 829.29775344 -354.60935803 823.63388622 -359.72949219 817.52148438 C-360.26243896 816.8952417 -360.79538574 816.26899902 -361.34448242 815.6237793 C-374.54302633 800.04623374 -386.70462659 783.70597485 -397.72949219 766.52148438 C-398.21208496 765.77801758 -398.69467773 765.03455078 -399.19189453 764.26855469 C-408.72455522 749.52943293 -416.88159475 734.21244531 -424.72949219 718.52148438 C-425.41954346 717.16120117 -425.41954346 717.16120117 -426.12353516 715.7734375 C-446.25651043 675.9801278 -458.62440189 632.80496565 -466.04199219 588.95898438 C-466.16536957 588.23814667 -466.28874695 587.51730896 -466.41586304 586.77462769 C-467.27529006 581.70163406 -468.04260582 576.62070389 -468.72949219 571.52148438 C-468.87946655 570.41249283 -468.87946655 570.41249283 -469.0324707 569.28109741 C-471.3323341 551.42262006 -471.13128482 533.43077511 -471.10449219 515.45898438 C-471.10395844 514.6573436 -471.10342468 513.85570282 -471.10287476 513.0297699 C-471.08372623 490.12141457 -471.00279839 467.41713008 -467.11608887 444.77575684 C-466.68518927 442.26315096 -466.26834556 439.74838326 -465.8515625 437.23339844 C-457.10979762 384.92433035 -443.4856819 335.03923936 -421.72949219 286.52148438 C-421.32875488 285.62606934 -420.92801758 284.7306543 -420.51513672 283.80810547 C-408.2792759 256.69810929 -393.09617947 230.66059887 -375.72949219 206.52148438 C-375.19356445 205.77447266 -374.65763672 205.02746094 -374.10546875 204.2578125 C-366.02035399 193.03181745 -357.60598063 182.13207514 -348.72949219 171.52148438 C-348.23239746 170.92529297 -347.73530273 170.32910156 -347.22314453 169.71484375 C-336.67449223 157.10512034 -325.45034659 145.17072318 -313.85449219 133.52148438 C-313.16524658 132.82756592 -312.47600098 132.13364746 -311.76586914 131.41870117 C-307.80808933 127.4733058 -303.74290235 123.71238159 -299.51123047 120.0625 C-297.33241127 118.17805128 -295.22053018 116.22593401 -293.10449219 114.27148438 C-287.50205977 109.2233261 -281.61415018 104.59904012 -275.64208984 100.00146484 C-273.71688943 98.51173228 -271.80651498 97.00448958 -269.89746094 95.49414062 C-253.43644991 82.56898946 -235.90496648 70.89985939 -217.72949219 60.52148438 C-216.74698486 59.95518311 -216.74698486 59.95518311 -215.74462891 59.37744141 C-176.24588041 36.68627672 -133.35848627 19.10822786 -88.72949219 9.52148438 C-87.73997559 9.30443848 -86.75045898 9.08739258 -85.73095703 8.86376953 C-57.32537794 2.72384626 -29.01087191 -0.1872048 0 0 Z " fill="#F8C131" transform="translate(470.7294921875,-0.521484375)"/>
<path d="M0 0 C1.03108887 0.02658691 2.06217773 0.05317383 3.12451172 0.08056641 C18.38719523 0.64843958 33.41657634 4.70683493 48.2421875 8.125 C48.93511398 8.28335327 49.62804047 8.44170654 50.34196472 8.6048584 C54.31080251 9.53335258 58.15434281 10.65017507 62 12 C62 12.33 62 12.66 62 13 C61.34854004 13.03440186 60.69708008 13.06880371 60.02587891 13.10424805 C47.09167766 13.83183917 34.41396753 15.01831165 21.6875 17.5 C20.59195801 17.71358154 19.49641602 17.92716309 18.36767578 18.1472168 C13.68543877 19.10302324 9.4247009 20.17757196 5 22 C2.57342768 22.52666763 0.14464583 22.93424675 -2.3046875 23.33984375 C-5.06647509 24.01628158 -7.52088925 25.05338527 -10.11279297 26.20874023 C-13.37009351 27.57444671 -16.74471644 28.54969292 -20.125 29.5625 C-25.52386514 31.18501131 -25.52386514 31.18501131 -30.8046875 33.15234375 C-33 34 -33 34 -36 34 C-36 34.66 -36 35.32 -36 36 C-37.32 36 -38.64 36 -40 36 C-40 36.66 -40 37.32 -40 38 C-42.41540306 38.98238408 -44.83221822 39.96100218 -47.25 40.9375 C-47.93191406 41.21529297 -48.61382812 41.49308594 -49.31640625 41.77929688 C-52.51923638 43.06975756 -55.63837534 44.21800044 -59 45 C-59 45.66 -59 46.32 -59 47 C-61.55781875 48.48780292 -64.12070266 49.96533338 -66.6875 51.4375 C-67.40873047 51.85837891 -68.12996094 52.27925781 -68.87304688 52.71289062 C-72.55781352 54.81606794 -75.70344855 56.53390468 -80 57 C-80 57.66 -80 58.32 -80 59 C-83 61 -83 61 -86 61 C-86 61.66 -86 62.32 -86 63 C-86.99 63 -87.98 63 -89 63 C-89 63.66 -89 64.32 -89 65 C-89.99 65 -90.98 65 -92 65 C-92 65.66 -92 66.32 -92 67 C-93.84375 68.26953125 -93.84375 68.26953125 -96.5 69.8125 C-104.58020324 74.81206093 -111.73538005 80.89942272 -119 87 C-119.61842773 87.51788086 -120.23685547 88.03576172 -120.87402344 88.56933594 C-132.94792559 98.71036895 -144.69077066 109.03393023 -155 121 C-155.5671875 121.64066406 -156.134375 122.28132813 -156.71875 122.94140625 C-158.494757 124.94779152 -160.24768956 126.97288731 -162 129 C-162.78761719 129.8971875 -163.57523438 130.794375 -164.38671875 131.71875 C-175.04250306 143.97459146 -184.52554389 157.142662 -193.5625 170.625 C-194.27684204 171.68883911 -194.27684204 171.68883911 -195.00561523 172.77416992 C-199.09218849 178.95597469 -202.71909726 185.35596171 -206 192 C-206.66 192 -207.32 192 -208 192 C-208.12375 192.556875 -208.2475 193.11375 -208.375 193.6875 C-209.05976855 196.22114364 -209.99133763 198.57921032 -211 201 C-211.66 201 -212.32 201 -213 201 C-213.15855469 201.54527344 -213.31710937 202.09054687 -213.48046875 202.65234375 C-215.08619346 207.84211698 -217.12206194 212.25638185 -220.01171875 216.859375 C-221.23089806 219.50012701 -221.31759518 221.1120869 -221 224 C-219.53050894 225.85964708 -219.53050894 225.85964708 -217.45507812 227.36132812 C-213.27795672 230.76111858 -209.49887601 234.38734273 -205.71875 238.21875 C-204.73207336 239.21110657 -204.73207336 239.21110657 -203.72546387 240.22351074 C-200.94933442 243.01578144 -198.17928463 245.81405416 -195.40869141 248.61181641 C-193.3683292 250.67040898 -191.32485669 252.72587903 -189.28125 254.78125 C-188.66954956 255.40124878 -188.05784912 256.02124756 -187.4276123 256.66003418 C-184.44890553 259.65529943 -181.4263146 262.53153168 -178.21875 265.28125 C-173.48506454 269.37245174 -169.09770692 273.78892094 -164.69447327 278.23036194 C-163.18187668 279.75593977 -161.66598798 281.27818086 -160.14929199 282.79968262 C-156.38604199 286.57616982 -152.62831332 290.35813511 -148.87042236 294.13995361 C-145.68264332 297.34759868 -142.49272958 300.55309295 -139.30006409 303.75587463 C-137.82029444 305.24203689 -136.34361435 306.73121996 -134.86706543 308.22058105 C-131.03566655 312.0658184 -127.22408447 315.87703773 -123.09570312 319.40429688 C-117.92988455 323.83489066 -113.18895878 328.70001712 -108.39810181 333.5267334 C-106.65025078 335.287525 -104.89914028 337.04501864 -103.1472168 338.80175781 C-98.7996505 343.1625859 -94.45758852 347.52888113 -90.11535645 351.89501953 C-86.4343432 355.59587072 -82.75121443 359.29459256 -79.06533813 362.99060059 C-77.3529083 364.70944044 -75.64355488 366.43129812 -73.93432617 368.15332031 C-69.08517898 373.02502614 -64.20365543 377.78291581 -58.97436523 382.25048828 C-54.75409612 385.99012578 -50.84216639 390.05859398 -46.875 394.0625 C-45.9194063 395.02251375 -44.96350816 395.98222453 -44.00732422 396.94165039 C-40.49449408 400.46770473 -36.98719427 403.9992429 -33.47973633 407.53063965 C-30.50334483 410.52691208 -27.52480843 413.52102231 -24.54351807 416.51242065 C-23.16346867 417.8988534 -21.78652256 419.28837298 -20.40966797 420.67797852 C-16.07189004 425.03252515 -11.67292897 429.21040423 -7.01098633 433.21386719 C-3.01214137 436.76559108 0.70711524 440.60702627 4.46875 444.40625 C5.34849487 445.28978149 6.22823975 446.17331299 7.13464355 447.08361816 C10.39656945 450.3597232 13.65392564 453.6403498 16.91094971 456.92132568 C20.1148726 460.14830538 23.32269116 463.3713808 26.53125 466.59375 C27.36168823 467.43248657 28.19212646 468.27122314 29.04772949 469.13537598 C33.25095558 473.35607909 37.53097031 477.38827419 42.04650879 481.2713623 C45.56995587 484.38924858 48.85033328 487.7485973 52.15625 491.09375 C53.27610291 492.21928284 53.27610291 492.21928284 54.4185791 493.36755371 C57.57701112 496.54216504 60.72939279 499.72275916 63.88232422 502.90283203 C66.20069745 505.23940361 68.5221552 507.57287999 70.84375 509.90625 C71.54294556 510.6137439 72.24214111 511.32123779 72.96252441 512.0501709 C76.89142575 515.9983189 80.93021086 519.7360028 85.14807129 523.3729248 C87.80209372 525.70470682 90.2672205 528.17315975 92.75 530.6875 C93.25241211 531.19369873 93.75482422 531.69989746 94.27246094 532.22143555 C96.3795795 534.34459649 98.48054213 536.47380842 100.58203125 538.60253906 C102.13585998 540.17468215 103.69286677 541.74363084 105.25 543.3125 C106.16265625 544.23675781 107.0753125 545.16101563 108.015625 546.11328125 C110.23407785 548.30772199 112.5431269 550.36448896 114.90429688 552.40429688 C118.87405276 555.8451587 122.59294969 559.48041414 126.28125 563.21875 C126.93903442 563.88032104 127.59681885 564.54189209 128.27453613 565.22351074 C131.05066558 568.01578144 133.82071537 570.81405416 136.59130859 573.61181641 C138.6316708 575.67040898 140.67514331 577.72587903 142.71875 579.78125 C143.33045044 580.40124878 143.94215088 581.02124756 144.5723877 581.66003418 C148.29414109 585.4024766 152.13628214 588.92629543 156.16418457 592.3380127 C159.08583589 594.98302119 161.51018623 597.94997814 164 601 C156.49912818 609.16655934 148.89348559 617.21079523 141.0625 625.0625 C140.36584229 625.76366943 139.66918457 626.46483887 138.95141602 627.18725586 C134.79326314 631.33347288 130.51972461 635.25215539 126 639 C124.69675781 640.09054687 124.69675781 640.09054687 123.3671875 641.203125 C113.56001854 649.25791581 103.67354284 657.11576326 93 664 C91.54048334 664.97740195 90.08217489 665.95661019 88.625 666.9375 C87.08488465 667.96067228 85.54313097 668.98138152 84 670 C83.12214844 670.58007812 82.24429687 671.16015625 81.33984375 671.7578125 C76.29334422 675.03697253 71.24333182 678.02720946 65.8203125 680.63671875 C63.07900445 681.96181087 60.37360983 683.34842564 57.66601562 684.74072266 C39.66083061 693.92549991 20.70069091 702.22480208 1 707 C0.31349365 707.17321777 -0.3730127 707.34643555 -1.08032227 707.52490234 C-13.63549589 710.67500486 -26.15574813 713.34452501 -39 715 C-39.68199463 715.09571289 -40.36398926 715.19142578 -41.06665039 715.29003906 C-50.34334189 716.42334916 -59.73190743 716.2439715 -69.0625 716.25 C-69.99929596 716.25067474 -70.93609192 716.25134949 -71.90127563 716.25204468 C-115.07647071 716.20271108 -156.82362517 706.39797222 -195 686 C-195.98129883 685.48034668 -195.98129883 685.48034668 -196.98242188 684.95019531 C-216.1203336 674.74642091 -233.67921871 662.02246131 -249.5546875 647.2578125 C-251.65882391 645.31501563 -253.80582946 643.46383928 -256 641.625 C-264.977006 633.80454078 -272.64317345 624.31864697 -280 615 C-280.5775 614.278125 -281.155 613.55625 -281.75 612.8125 C-283 611 -283 611 -283 609 C-283.66 609 -284.32 609 -285 609 C-287.59301541 605.86922855 -289.73579046 602.37312408 -292 599 C-292.72316406 597.96875 -293.44632813 596.9375 -294.19140625 595.875 C-311.95772291 570.31748711 -324.94051925 542.17344043 -335.01489258 512.82202148 C-335.99423875 510.01650417 -337.02855844 507.23598044 -338.0703125 504.453125 C-340.0351089 499.06398289 -341.5636703 493.6290509 -342.9375 488.0625 C-343.19055908 487.03817871 -343.44361816 486.01385742 -343.7043457 484.95849609 C-351.18781121 453.83945923 -355.00590864 422.10686807 -355.125 390.125 C-355.13213013 388.62066406 -355.13213013 388.62066406 -355.1394043 387.0859375 C-355.10438249 370.73205241 -354.02279128 354.47344141 -352 338.25 C-351.89595856 337.40870544 -351.79191711 336.56741089 -351.6847229 335.70062256 C-340.05120847 243.50397171 -297.65807297 157.89670367 -219 80 C-218.030625 79.14148438 -217.06125 78.28296875 -216.0625 77.3984375 C-178.47916633 44.26855565 -132.43244931 19.16992567 -83.61767578 7.62011719 C-81.20750238 7.04915651 -78.80495035 6.45339576 -76.40234375 5.8515625 C-51.13192073 -0.32389182 -25.85748552 -0.67903473 0 0 Z " fill="#FDBA27" transform="translate(478,115)"/>
<path d="M0 0 C30.15721009 7.16196379 58.77521572 17.20582256 87 30 C88.4236084 30.63953613 88.4236084 30.63953613 89.87597656 31.29199219 C117.38942806 43.72282785 143.68562458 59.3781648 167.87988281 77.42236328 C169.96017801 78.97036737 172.0526187 80.50044684 174.1484375 82.02734375 C183.51849474 88.89654408 192.33341895 96.26738524 201 104 C201.86882813 104.76828125 202.73765625 105.5365625 203.6328125 106.328125 C206.1068704 108.53273105 208.55601891 110.76209424 211 113 C211.54591797 113.4954834 212.09183594 113.9909668 212.65429688 114.50146484 C221.70823856 122.7320975 230.26062935 131.28608392 238.48974609 140.34130859 C239.81315015 141.79478534 241.14966819 143.23629939 242.48828125 144.67578125 C248.19664596 150.87082714 253.38527299 157.41757874 258.52001953 164.08740234 C260.0097521 166.01260276 261.5169948 167.9229772 263.02734375 169.83203125 C310.79924035 230.65839678 341.87197335 304.32538011 353.8125 380.625 C354.10471436 382.48801758 354.10471436 382.48801758 354.40283203 384.38867188 C354.87904274 387.57907386 355.32553616 390.77081366 355.73754883 393.97012329 C355.91292245 395.32651589 356.09426858 396.68214928 356.28149414 398.03695679 C358.49073741 414.35473614 358.37489409 430.76920884 358.37060547 447.20239258 C358.37044433 450.41584122 358.38413352 453.62871111 358.41162109 456.84204102 C358.65790354 486.13737701 356.63391493 514.95241693 350.625 543.6875 C350.32112995 545.19025039 350.0177573 546.69310143 349.71484375 548.19604492 C347.19598092 560.5613489 344.37045609 572.83714457 341 585 C340.7534668 585.8976709 340.50693359 586.7953418 340.25292969 587.72021484 C322.40066219 651.7615005 289.83333231 712.18959902 247.43115234 763.26464844 C246.16361837 764.80160365 244.91800793 766.35658166 243.67578125 767.9140625 C238.28484402 774.67017237 232.47216294 780.96178593 226.5390625 787.23828125 C224.31900176 789.58727583 222.12367943 791.95361179 219.9609375 794.35546875 C212.93984534 802.14059323 205.49722569 809.33899582 197.75146484 816.40136719 C196.15691884 817.85677382 194.57099041 819.32081095 192.98828125 820.7890625 C186.85038203 826.44538618 180.50724366 831.77551586 174 837 C172.85623062 837.93553785 171.71302856 838.87176961 170.5703125 839.80859375 C161.35122764 847.32776689 151.81529505 854.28150927 142 861 C141.27941406 861.495 140.55882812 861.99 139.81640625 862.5 C67.76214745 911.82056217 -14.35380368 941.55458214 -101 951 C-101.75733932 951.08694626 -102.51467865 951.17389252 -103.29496765 951.26347351 C-111.73981335 952.14575602 -120.17190514 952.20082167 -128.65234375 952.23828125 C-129.44682985 952.24235678 -130.24131596 952.2464323 -131.0598774 952.25063133 C-135.28999684 952.27140707 -139.52008496 952.28572834 -143.75024414 952.29516602 C-147.16384445 952.30389748 -150.57702044 952.32447139 -153.99047852 952.35668945 C-231.25999047 953.06936157 -305.95853006 934.61645971 -375 900 C-376.2669873 899.36843994 -376.2669873 899.36843994 -377.55957031 898.72412109 C-421.51972302 876.67299803 -461.00023891 846.26143621 -495.62915039 811.5012207 C-497.32519726 809.79976222 -499.02659821 808.10378737 -500.72851562 806.40820312 C-506.36455082 800.77626907 -511.87986584 795.11240184 -517 789 C-517.53294678 788.37375732 -518.06589355 787.74751465 -518.61499023 787.10229492 C-531.81353414 771.52474936 -543.9751344 755.18449047 -555 738 C-555.48259277 737.2565332 -555.96518555 736.51306641 -556.46240234 735.74707031 C-565.99506303 721.00794855 -574.15210256 705.69096093 -582 690 C-582.69005127 688.6397168 -582.69005127 688.6397168 -583.39404297 687.25195312 C-603.52701824 647.45864342 -615.8949097 604.28348128 -623.3125 560.4375 C-623.43587738 559.71666229 -623.55925476 558.99582458 -623.68637085 558.25314331 C-624.54581149 553.1800693 -625.30834946 548.09860106 -626 543 C-626.10131226 542.26997772 -626.20262451 541.53995544 -626.30700684 540.78781128 C-628.64831327 523.1571439 -628.23602408 505.38978682 -628.1373291 487.6451416 C-628.11653983 483.50107909 -628.1076661 479.35699071 -628.09765625 475.21289062 C-628.07647198 467.14185799 -628.04252765 459.07094834 -628 451 C-627.34 450.67 -626.68 450.34 -626 450 C-625.99413376 450.60323593 -625.98826752 451.20647186 -625.98222351 451.82798767 C-625.39193791 510.05347332 -621.87496313 567.91095123 -602.85742188 623.45996094 C-602.00086105 625.9974492 -601.19016188 628.54558581 -600.390625 631.1015625 C-590.28145795 663.08705222 -575.37018709 693.38247074 -558 722 C-557.54383301 722.76135254 -557.08766602 723.52270508 -556.61767578 724.30712891 C-544.87091072 743.90313567 -531.00884098 762.27440486 -515.88256836 779.38378906 C-513.49428845 782.11210208 -511.39009919 784.62757001 -510 788 C-509.34 788 -508.68 788 -508 788 C-506.59863281 789.41821289 -506.59863281 789.41821289 -504.953125 791.41015625 C-500.77585367 796.31855805 -496.30826299 800.88380166 -491.75 805.4375 C-490.90808105 806.27861328 -490.06616211 807.11972656 -489.19873047 807.98632812 C-484.20293296 812.93304344 -479.1858111 817.61669968 -473.63671875 821.9375 C-469.73369569 824.99053137 -465.99507523 828.23248203 -462.23681641 831.4609375 C-459.30086712 833.99523899 -459.30086712 833.99523899 -456 836 C-456 836.66 -456 837.32 -456 838 C-454.68 838.33 -453.36 838.66 -452 839 C-452 839.66 -452 840.32 -452 841 C-450.68 841.33 -449.36 841.66 -448 842 C-448 842.66 -448 843.32 -448 844 C-447.28054199 844.25418701 -446.56108398 844.50837402 -445.81982422 844.77026367 C-442.79551484 846.08917678 -440.50863314 847.68348337 -437.8828125 849.67578125 C-382.10333939 891.04882073 -313.43010193 912.68390832 -245 920 C-243.93320007 920.12685432 -243.93320007 920.12685432 -242.84484863 920.25627136 C-235.67731236 921.05964743 -228.54360868 921.21743206 -221.3359375 921.31640625 C-220.06271637 921.33718735 -218.78949524 921.35796844 -217.47769165 921.37937927 C-214.12741131 921.4333206 -210.77711774 921.48367644 -207.42675781 921.53222656 C-203.99409205 921.58287513 -200.56150413 921.63833254 -197.12890625 921.69335938 C-190.41933325 921.79995688 -183.70970118 921.90182025 -177 922 C-177 921.34 -177 920.68 -177 920 C-176.07179443 919.91024902 -175.14358887 919.82049805 -174.18725586 919.72802734 C-89.6264275 911.38160178 -9.19460493 882.41955292 59 831 C59.60908203 830.54254395 60.21816406 830.08508789 60.84570312 829.61376953 C68.38551906 823.93385836 75.75720173 818.05383001 83 812 C83.5161084 811.57025879 84.0322168 811.14051758 84.56396484 810.69775391 C100.60892635 797.29740833 116.62693836 783.00514834 130.20703125 767.0703125 C132.33146824 764.6172589 134.54188637 762.25296853 136.75 759.875 C142.0284175 754.08551031 146.83157929 747.98663527 151.61328125 741.78515625 C152.96705867 740.04240616 154.33874198 738.31577729 155.71875 736.59375 C181.00484574 704.98272005 203.0143726 669.22707522 219 632 C219.58177002 630.67343384 219.58177002 630.67343384 220.17529297 629.32006836 C240.03754709 583.93317588 253.17465733 537.28253668 260.48339844 488.33837891 C260.96446616 485.22962652 261.50971059 482.13887828 262.06640625 479.04296875 C263.23416548 472.06238926 263.72274458 465.06018324 264.125 458 C264.18753967 456.9298465 264.18753967 456.9298465 264.25134277 455.83807373 C267.11761177 405.31904622 266.126362 351.62170032 252.05029297 302.69921875 C251.04439808 299.15637371 250.11475906 295.60126386 249.1953125 292.03515625 C247.09550974 284.05049345 244.53160784 276.25122573 241.875 268.4375 C241.42795194 267.11147418 240.98133626 265.78530252 240.53515625 264.45898438 C239.7199275 262.03741339 238.9018002 259.6169011 238.08154297 257.19702148 C237.36246751 255.0714474 236.65107162 252.94325935 235.94750977 250.8125 C234.7788838 247.3436592 233.43268669 243.95517888 232.0625 240.5625 C231.81048828 239.93279297 231.55847656 239.30308594 231.29882812 238.65429688 C230.03813825 235.5170814 228.74789129 232.39647448 227.40625 229.29296875 C226.33780147 226.79101845 225.36803908 224.30289256 224.4375 221.75 C221.35185815 213.94584746 217.14709911 206.64304294 213.18969727 199.25708008 C212.06048603 197.11475341 210.97407125 194.95669932 209.90234375 192.78515625 C208.25386227 189.46007068 206.45850752 186.25462352 204.5625 183.0625 C202.45075934 179.49051314 200.39598841 175.90795093 198.4375 172.25 C196.37456487 168.47933711 193.92542774 165.17602761 191.28515625 161.79296875 C189.75721583 159.66128288 188.89285208 157.45534322 188 155 C187.34 154.67 186.68 154.34 186 154 C185.26674971 152.73374448 184.58814499 151.43561822 183.9375 150.125 C181.31325592 145.25250004 178.0345317 141.25894487 174.47265625 137.04296875 C171.28617123 133.12152826 168.39560652 129.02394483 165.53833008 124.85864258 C162.98099017 121.18283055 160.21745033 118.10429841 157 115 C155.11458864 112.98763401 153.23948809 110.96896637 151.375 108.9375 C150.59721191 108.09421143 150.59721191 108.09421143 149.80371094 107.23388672 C147.20490485 104.41338528 144.61884809 101.58251385 142.0546875 98.73046875 C137.40844021 93.57872512 132.77630175 88.66547756 127.36328125 84.3046875 C126.91339844 83.87414062 126.46351563 83.44359375 126 83 C126 82.34 126 81.68 126 81 C125.18595703 80.66935547 125.18595703 80.66935547 124.35546875 80.33203125 C121.23341293 78.56649056 118.86789306 76.16548084 116.3125 73.6875 C109.35965769 67.12103735 101.91477556 61.3677453 94.24023438 55.67529297 C92.0216657 54.01620206 89.8297439 52.32660029 87.640625 50.62890625 C61.0903024 30.25564491 30.7965884 14.83011791 0 2 C0 1.34 0 0.68 0 0 Z " fill="#CD680A" transform="translate(628,28)"/>
<path d="M0 0 C1.03108887 0.02658691 2.06217773 0.05317383 3.12451172 0.08056641 C18.38719523 0.64843958 33.41657634 4.70683493 48.2421875 8.125 C48.93511398 8.28335327 49.62804047 8.44170654 50.34196472 8.6048584 C54.31080251 9.53335258 58.15434281 10.65017507 62 12 C62 12.33 62 12.66 62 13 C61.34854004 13.03440186 60.69708008 13.06880371 60.02587891 13.10424805 C47.09167766 13.83183917 34.41396753 15.01831165 21.6875 17.5 C20.59195801 17.71358154 19.49641602 17.92716309 18.36767578 18.1472168 C13.68543877 19.10302324 9.4247009 20.17757196 5 22 C2.57342768 22.52666763 0.14464583 22.93424675 -2.3046875 23.33984375 C-5.06647509 24.01628158 -7.52088925 25.05338527 -10.11279297 26.20874023 C-13.37009351 27.57444671 -16.74471644 28.54969292 -20.125 29.5625 C-25.52386514 31.18501131 -25.52386514 31.18501131 -30.8046875 33.15234375 C-33 34 -33 34 -36 34 C-36 34.66 -36 35.32 -36 36 C-37.32 36 -38.64 36 -40 36 C-40 36.66 -40 37.32 -40 38 C-42.41540306 38.98238408 -44.83221822 39.96100218 -47.25 40.9375 C-47.93191406 41.21529297 -48.61382812 41.49308594 -49.31640625 41.77929688 C-52.51923638 43.06975756 -55.63837534 44.21800044 -59 45 C-59 45.66 -59 46.32 -59 47 C-61.55781875 48.48780292 -64.12070266 49.96533338 -66.6875 51.4375 C-67.40873047 51.85837891 -68.12996094 52.27925781 -68.87304688 52.71289062 C-72.55781352 54.81606794 -75.70344855 56.53390468 -80 57 C-80 57.66 -80 58.32 -80 59 C-83 61 -83 61 -86 61 C-86 61.66 -86 62.32 -86 63 C-86.99 63 -87.98 63 -89 63 C-89 63.66 -89 64.32 -89 65 C-89.99 65 -90.98 65 -92 65 C-92 65.66 -92 66.32 -92 67 C-93.84375 68.26953125 -93.84375 68.26953125 -96.5 69.8125 C-104.58020324 74.81206093 -111.73538005 80.89942272 -119 87 C-119.61842773 87.51788086 -120.23685547 88.03576172 -120.87402344 88.56933594 C-132.94792559 98.71036895 -144.69077066 109.03393023 -155 121 C-155.5671875 121.64066406 -156.134375 122.28132813 -156.71875 122.94140625 C-158.494757 124.94779152 -160.24768956 126.97288731 -162 129 C-162.78761719 129.8971875 -163.57523438 130.794375 -164.38671875 131.71875 C-175.04250306 143.97459146 -184.52554389 157.142662 -193.5625 170.625 C-194.27684204 171.68883911 -194.27684204 171.68883911 -195.00561523 172.77416992 C-199.09218849 178.95597469 -202.71909726 185.35596171 -206 192 C-206.66 192 -207.32 192 -208 192 C-208.12375 192.556875 -208.2475 193.11375 -208.375 193.6875 C-209.05976855 196.22114364 -209.99133763 198.57921032 -211 201 C-211.66 201 -212.32 201 -213 201 C-213.33 202.175625 -213.66 203.35125 -214 204.5625 C-215.46594872 209.00897952 -217.54514929 212.98539985 -219.8125 217.0625 C-223.63694976 224.01620301 -226.49166116 231.12926627 -229.13574219 238.59619141 C-230.50413808 242.40218745 -231.94094354 246.18206764 -233.37011719 249.96557617 C-234.92486012 254.0851356 -236.4640314 258.21043829 -238.00292969 262.3359375 C-238.81985294 264.51866681 -239.64575246 266.69754078 -240.4765625 268.875 C-244.38324203 279.36002376 -247.25547601 290.16104459 -250 301 C-250.36581177 302.43267212 -250.36581177 302.43267212 -250.73901367 303.89428711 C-253.1165832 313.65014671 -254.58165755 323.51576107 -256.0625 333.4375 C-256.3205194 335.1387393 -256.57898086 336.83991161 -256.83789062 338.54101562 C-257.73622835 344.45825316 -257.73622835 344.45825316 -258.61009216 350.37913513 C-258.89947216 352.32427654 -259.20609603 354.26686898 -259.52186584 356.207901 C-260.82813685 364.56432582 -261.30712193 372.67741136 -261.30078125 381.12890625 C-261.30720894 383.0935508 -261.30720894 383.0935508 -261.31376648 385.09788513 C-261.32116231 387.85851109 -261.32099144 390.61900914 -261.31567383 393.37963867 C-261.31108892 396.14152518 -261.31779474 398.90296644 -261.33618164 401.66479492 C-261.58033578 438.71159111 -256.96478725 474.53156197 -246.78271484 510.22412109 C-245.89261258 513.38084684 -245.05996677 516.54958902 -244.2409668 519.7253418 C-242.79774856 525.30946963 -241.18410775 530.66737328 -239 536 C-238.35224609 537.67835938 -238.35224609 537.67835938 -237.69140625 539.390625 C-234.92319997 546.5271196 -231.89472133 553.38467352 -228.390625 560.19921875 C-223 571.05617978 -223 571.05617978 -223 575 C-222.34 575 -221.68 575 -221 575 C-220.56300781 575.90878906 -220.56300781 575.90878906 -220.1171875 576.8359375 C-217.05003315 583.10527815 -213.67001859 589.06720306 -210 595 C-209.22497318 596.27847175 -208.45025625 597.55713139 -207.67578125 598.8359375 C-202.89837151 606.66692066 -197.89802043 613.9547959 -192 621 C-190.91124756 622.41250617 -189.82792648 623.82921498 -188.75 625.25 C-175.41065699 642.34103323 -160.41812363 658.98674868 -143 672 C-142.47083984 672.40557129 -141.94167969 672.81114258 -141.39648438 673.22900391 C-119.58334893 689.94705534 -95.79155329 703.42716714 -70 713 C-68.33147635 713.66200533 -66.66409935 714.32695054 -65 715 C-65 715.33 -65 715.66 -65 716 C-110.6137468 717.09123796 -154.65388411 707.55728392 -195 686 C-195.98129883 685.48034668 -195.98129883 685.48034668 -196.98242188 684.95019531 C-216.1203336 674.74642091 -233.67921871 662.02246131 -249.5546875 647.2578125 C-251.65882391 645.31501563 -253.80582946 643.46383928 -256 641.625 C-264.977006 633.80454078 -272.64317345 624.31864697 -280 615 C-280.5775 614.278125 -281.155 613.55625 -281.75 612.8125 C-283 611 -283 611 -283 609 C-283.66 609 -284.32 609 -285 609 C-287.59301541 605.86922855 -289.73579046 602.37312408 -292 599 C-292.72316406 597.96875 -293.44632813 596.9375 -294.19140625 595.875 C-311.95772291 570.31748711 -324.94051925 542.17344043 -335.01489258 512.82202148 C-335.99423875 510.01650417 -337.02855844 507.23598044 -338.0703125 504.453125 C-340.0351089 499.06398289 -341.5636703 493.6290509 -342.9375 488.0625 C-343.19055908 487.03817871 -343.44361816 486.01385742 -343.7043457 484.95849609 C-351.18781121 453.83945923 -355.00590864 422.10686807 -355.125 390.125 C-355.13213013 388.62066406 -355.13213013 388.62066406 -355.1394043 387.0859375 C-355.10438249 370.73205241 -354.02279128 354.47344141 -352 338.25 C-351.89595856 337.40870544 -351.79191711 336.56741089 -351.6847229 335.70062256 C-340.05120847 243.50397171 -297.65807297 157.89670367 -219 80 C-218.030625 79.14148438 -217.06125 78.28296875 -216.0625 77.3984375 C-178.47916633 44.26855565 -132.43244931 19.16992567 -83.61767578 7.62011719 C-81.20750238 7.04915651 -78.80495035 6.45339576 -76.40234375 5.8515625 C-51.13192073 -0.32389182 -25.85748552 -0.67903473 0 0 Z " fill="#E0850D" transform="translate(478,115)"/>
<path d="M0 0 C3.06751091 1.17837309 5.01633433 2.81829637 7.25 5.1875 C9.58085498 7.59180629 11.93810095 9.84466319 14.5 12 C18.71534267 15.62256011 22.59190304 19.55359776 26.5 23.5 C30.93046286 27.97380317 35.3652883 32.33433428 40.1796875 36.3984375 C43.11341105 38.97961058 45.81149178 41.79030691 48.53125 44.59375 C50.56500307 46.57601565 52.63144304 48.4295608 54.78125 50.28125 C59.77855716 54.61721735 64.36994837 59.31858018 69 64.0390625 C72.91561959 68.00056825 76.93621009 71.74406719 81.15625 75.37890625 C83.73070447 77.64246261 86.1047394 80.04702227 88.5 82.5 C91.5714984 85.61803626 94.66721906 88.65894084 98 91.5 C101.8496396 94.78165999 105.38002309 98.35105176 108.92919922 101.94873047 C112.17364737 105.22020631 115.53617507 108.26963506 119.0390625 111.2578125 C122.09229171 113.97044244 124.9140315 116.90600453 127.78125 119.8125 C129.79430632 121.79720342 131.85446403 123.66096916 134 125.5 C136.97140209 128.04691608 139.7514401 130.71378859 142.5 133.5 C145.22829407 136.26560408 147.98516834 138.91287031 150.9375 141.4375 C154.1103592 144.15619248 157.06338382 147.02751675 160 150 C162.91626603 152.95183025 165.84605835 155.80388859 169 158.5 C173.07623219 161.98452107 176.79550873 165.78081981 180.5625 169.59375 C182.65000635 171.65449345 184.77169223 173.59515626 187 175.5 C190.15394165 178.19611141 193.08373397 181.04816975 196 184 C198.89591958 186.93118191 201.80242571 189.76403174 204.9375 192.4375 C208.28925096 195.30172355 211.40556417 198.36334093 214.5 201.5 C217.57390527 204.61579123 220.66702145 207.65877238 224 210.5 C227.85043015 213.7823339 231.38145579 217.35254849 234.93139648 220.95092773 C238.15366448 224.20000607 241.49340645 227.22443863 244.97265625 230.19140625 C248.31879936 233.17650116 251.41593952 236.40882768 254.56640625 239.59765625 C256.63242365 241.63714373 258.73005549 243.555078 260.9375 245.4375 C264.28925096 248.30172355 267.40556417 251.36334093 270.5 254.5 C273.57390527 257.61579123 276.66702145 260.65877238 280 263.5 C283.33297947 266.3412284 286.4260813 269.38422368 289.5 272.5 C292.51231431 275.55316617 295.53548877 278.54072391 298.8125 281.3125 C303.42205464 285.23774962 307.60472173 289.57956785 311.85986328 293.87939453 C315.4540559 297.49678173 319.11700476 300.93622458 323.01171875 304.23046875 C326.53739466 307.36825105 329.79771849 310.78079604 333.09375 314.15625 C335.24837622 316.31698863 337.49955881 318.32250635 339.8125 320.3125 C345.03115447 324.83139155 349.81047763 329.76148815 354.64453125 334.68359375 C358.69576064 338.77926076 362.83831696 342.67068814 367.20507812 346.42773438 C369.58393113 348.51149571 371.79444698 350.73483744 374 353 C377.63904356 356.68383178 381.37274108 360.16051514 385.3046875 363.52734375 C387.30002862 365.26062394 389.16992634 367.09367328 391 369 C388.94238662 376.00491578 386.03207528 382.30545108 382.625 388.75 C382.10043213 389.74717041 381.57586426 390.74434082 381.03540039 391.77172852 C366.84796485 418.37553367 349.31048282 442.89727766 330 466 C325.34218631 462.05722081 320.77239721 458.04046677 316.3125 453.875 C315.65894531 453.26462891 315.00539063 452.65425781 314.33203125 452.02539062 C305.6408215 443.82306142 297.25445539 435.30506999 288.84887695 426.81201172 C283.71902271 421.63905317 278.61074268 416.55526437 273.05664062 411.83398438 C267.59558475 406.96415392 262.55709848 401.60320902 257.41796875 396.39746094 C255.86414002 394.82531785 254.30713323 393.25636916 252.75 391.6875 C251.38101563 390.30111328 251.38101563 390.30111328 249.984375 388.88671875 C247.76881612 386.6951314 245.46288751 384.64129139 243.10449219 382.60449219 C239.08166407 379.11766067 235.31622398 375.42841574 231.578125 371.640625 C230.57721832 370.63403839 230.57721832 370.63403839 229.55609131 369.6071167 C227.45158111 367.4905226 225.35038467 365.37068758 223.25 363.25 C220.4664444 360.4398075 217.6795599 357.6329778 214.890625 354.828125 C214.25827942 354.18748108 213.62593384 353.54683716 212.97442627 352.88677979 C210.58153697 350.48059531 208.29983547 348.22225651 205.56933594 346.19824219 C205.05145508 345.80282227 204.53357422 345.40740234 204 345 C204 344.34 204 343.68 204 343 C203.43194641 342.75759079 202.86389282 342.51518158 202.27862549 342.26542664 C199.55976289 340.75551587 197.73126628 338.96375035 195.54199219 336.75317383 C194.66718201 335.87498489 193.79237183 334.99679596 192.89105225 334.09199524 C191.94296772 333.13036566 190.99490931 332.16871034 190.046875 331.20703125 C189.06335971 330.21723715 188.07932189 329.22796203 187.0947876 328.23918152 C184.50270303 325.63380428 181.91623403 323.02292934 179.33135986 320.41040039 C175.21028786 316.24622327 171.08263744 312.08859785 166.95145416 307.93445396 C165.52007002 306.49297793 164.09222841 305.048064 162.66473389 303.60273743 C158.25332046 299.15885842 153.7906459 294.88785078 149.03863525 290.81254578 C144.80170318 287.0454995 140.86384764 282.96328805 136.875 278.9375 C135.9194063 277.97748625 134.96350816 277.01777547 134.00732422 276.05834961 C130.49449408 272.53229527 126.98719427 269.0007571 123.47973633 265.46936035 C120.50334483 262.47308792 117.52480843 259.47897769 114.54351807 256.48757935 C113.16346867 255.1011466 111.78652256 253.71162702 110.40966797 252.32202148 C106.74369461 248.64187644 103.08727892 245.01182573 99.13671875 241.63671875 C93.95945314 237.18953051 89.20272217 232.3138493 84.39810181 227.4732666 C82.65025078 225.712475 80.89914028 223.95498136 79.1472168 222.19824219 C74.7996505 217.8374141 70.45758852 213.47111887 66.11535645 209.10498047 C62.4343432 205.40412928 58.75121443 201.70540744 55.06533813 198.00939941 C53.3529083 196.29055956 51.64355488 194.56870188 49.93432617 192.84667969 C45.09829039 187.98814404 40.22956765 183.24538417 35.01464844 178.78979492 C31.07524505 175.29006562 27.40316272 171.51050823 23.69447327 167.76963806 C22.18187668 166.24406023 20.66598798 164.72181914 19.14929199 163.20031738 C15.38604199 159.42383018 11.62831332 155.64186489 7.87042236 151.86004639 C4.68264332 148.65240132 1.49272958 145.44690705 -1.69993591 142.24412537 C-3.17970556 140.75796311 -4.65638565 139.26878004 -6.13293457 137.77941895 C-10.67080184 133.22516155 -15.25453053 128.82389298 -20.13522339 124.6399231 C-23.39003678 121.77757292 -26.41362265 118.68913208 -29.45703125 115.60546875 C-30.46149544 114.59532463 -30.46149544 114.59532463 -31.48625183 113.56477356 C-33.59748044 111.44146009 -35.70539267 109.31490283 -37.8125 107.1875 C-40.60779839 104.36561288 -43.40639428 101.54705639 -46.20703125 98.73046875 C-47.16329155 97.76176094 -47.16329155 97.76176094 -48.13887024 96.77348328 C-49.03076302 95.87663567 -49.03076302 95.87663567 -49.94067383 94.96166992 C-50.46059402 94.43651291 -50.98051422 93.9113559 -51.51618958 93.37028503 C-53.16138248 91.77903138 -53.16138248 91.77903138 -56 90 C-57.01459809 85.05497688 -54.30368251 81.04584473 -52.0625 76.8125 C-51.68931641 76.08869141 -51.31613281 75.36488281 -50.93164062 74.61914062 C-49.96247051 72.74191923 -48.98198635 70.87054904 -48 69 C-47.505 68.01 -47.505 68.01 -47 67 C-46.34 67 -45.68 67 -45 67 C-44.87625 66.2575 -44.7525 65.515 -44.625 64.75 C-44.04513299 62.19858515 -43.26291261 60.2732427 -42 58 C-41.34 58 -40.68 58 -40 58 C-39.91492188 57.47921875 -39.82984375 56.9584375 -39.7421875 56.421875 C-38.71292604 53.06323233 -36.94337548 50.2282669 -35.125 47.25 C-34.72571289 46.59241699 -34.32642578 45.93483398 -33.91503906 45.25732422 C-25.48448967 31.53249381 -15.91238223 18.68060927 -6 6 C-5.25621094 5.03449219 -4.51242187 4.06898438 -3.74609375 3.07421875 C-2 1 -2 1 0 0 Z " fill="#FDC94D" transform="translate(312,249)"/>
</svg>
